<?xml version="1.0" encoding="UTF-8"?>
<!DOCTYPE svg PUBLIC "-//W3C//DTD SVG 1.1//EN" "http://www.w3.org/Graphics/SVG/1.1/DTD/svg11.dtd">
<!-- Creator: CorelDRAW -->
<svg xmlns="http://www.w3.org/2000/svg" xml:space="preserve" width="35mm" height="40mm" version="1.1" style="shape-rendering:geometricPrecision; text-rendering:geometricPrecision; image-rendering:optimizeQuality; fill-rule:evenodd; clip-rule:evenodd"
viewBox="0 0 3500 4000"
 xmlns:xlink="http://www.w3.org/1999/xlink"
 xmlns:xodm="http://www.corel.com/coreldraw/odm/2003">
 <defs>
  <style type="text/css">
   <![CDATA[
    .fil0 {fill:#702122}
   ]]>
  </style>
 </defs>
 <g id="Capa_x0020_1">
  <metadata id="CorelCorpID_0Corel-Layer"/>
  <path class="fil0" d="M2031.79 533.41c0,238.24 -209.03,512.4 -70.76,800.57 -277.62,-112.1 -6.22,-686.59 -6.22,-839.05 0,-132.68 -28.46,-149.02 -38.49,-269.4 91.66,67.15 115.47,148.09 115.47,307.88z"/>
  <path class="fil0" d="M1212.33 3073.58c18.62,37.54 12.92,42.23 41.57,84.25 88.26,66.69 467.81,96.59 692.2,34.47 117.24,-32.46 113.42,-22.2 156.62,-120.39 516.82,74.67 394.11,245.19 -62.49,310.01 -269.69,38.24 -861.36,31.74 -1093.59,-83.95 -222.2,-110.71 151.39,-209.56 265.69,-224.39zm1357 -641.82c79.23,-178.1 127.01,-404.47 266.77,-484.88 382.28,-220.01 248.98,535.09 -266.77,484.88zm-97.58 -562.84c-219.55,76.76 -572.9,94.58 -803.87,95.25 -177.37,0.49 -880.12,4.07 -970.06,-214.24 129.74,-175.76 604.46,-219.81 878.28,-212.88 346.96,6.44 866.07,53.77 992.32,141.93 47.42,33.11 135.82,108.69 -96.67,189.94zm-1849.53 -175.39c-90.48,169.95 5.52,491.27 79.11,648.67 44.26,94.7 267.81,388.54 323.09,435.14 -207.26,43.1 -444.1,95.59 -615.63,195.41 -81.44,47.37 -173.12,99.2 -209.29,188.67 -247.13,611.3 2052.75,846.96 2753.65,310.48 66.76,-51.1 153.23,-110.52 139.6,-247.12 -26.86,-269.43 -578.93,-377.46 -791.03,-439.52l173.72 -226.23c342.17,-34.85 475.57,-95.9 633.11,-301.78 132.83,-280.61 -15.4,-523.23 -359.18,-375.17 -3.65,-129.15 -67.84,-223.26 -181.1,-279.43 -259.95,-128.91 -757.43,-137.35 -986.46,-145.94 -449.73,-20.42 -783.2,77.39 -959.59,236.82z"/>
  <path class="fil0" d="M1615 1002.31c0,238.24 -209.02,512.4 -70.76,800.57 -277.62,-112.1 -6.21,-686.59 -6.21,-839.05 0,-132.68 -28.47,-149.02 -38.49,-269.41 91.66,67.16 115.46,148.1 115.46,307.89z"/>
 </g>
</svg>
=======
<?xml version="1.0" encoding="UTF-8"?>
<!DOCTYPE svg PUBLIC "-//W3C//DTD SVG 1.1//EN" "http://www.w3.org/Graphics/SVG/1.1/DTD/svg11.dtd">
<!-- Creator: CorelDRAW -->
<svg xmlns="http://www.w3.org/2000/svg" xml:space="preserve" width="35mm" height="40mm" version="1.1" style="shape-rendering:geometricPrecision; text-rendering:geometricPrecision; image-rendering:optimizeQuality; fill-rule:evenodd; clip-rule:evenodd"
viewBox="0 0 3500 4000"
 xmlns:xlink="http://www.w3.org/1999/xlink"
 xmlns:xodm="http://www.corel.com/coreldraw/odm/2003">
 <defs>
  <style type="text/css">
   <![CDATA[
    .fil0 {fill:#702122}
   ]]>
  </style>
 </defs>
 <g id="Capa_x0020_1">
  <metadata id="CorelCorpID_0Corel-Layer"/>
  <path class="fil0" d="M2031.79 533.41c0,238.24 -209.03,512.4 -70.76,800.57 -277.62,-112.1 -6.22,-686.59 -6.22,-839.05 0,-132.68 -28.46,-149.02 -38.49,-269.4 91.66,67.15 115.47,148.09 115.47,307.88z"/>
  <path class="fil0" d="M1212.33 3073.58c18.62,37.54 12.92,42.23 41.57,84.25 88.26,66.69 467.81,96.59 692.2,34.47 117.24,-32.46 113.42,-22.2 156.62,-120.39 516.82,74.67 394.11,245.19 -62.49,310.01 -269.69,38.24 -861.36,31.74 -1093.59,-83.95 -222.2,-110.71 151.39,-209.56 265.69,-224.39zm1357 -641.82c79.23,-178.1 127.01,-404.47 266.77,-484.88 382.28,-220.01 248.98,535.09 -266.77,484.88zm-97.58 -562.84c-219.55,76.76 -572.9,94.58 -803.87,95.25 -177.37,0.49 -880.12,4.07 -970.06,-214.24 129.74,-175.76 604.46,-219.81 878.28,-212.88 346.96,6.44 866.07,53.77 992.32,141.93 47.42,33.11 135.82,108.69 -96.67,189.94zm-1849.53 -175.39c-90.48,169.95 5.52,491.27 79.11,648.67 44.26,94.7 267.81,388.54 323.09,435.14 -207.26,43.1 -444.1,95.59 -615.63,195.41 -81.44,47.37 -173.12,99.2 -209.29,188.67 -247.13,611.3 2052.75,846.96 2753.65,310.48 66.76,-51.1 153.23,-110.52 139.6,-247.12 -26.86,-269.43 -578.93,-377.46 -791.03,-439.52l173.72 -226.23c342.17,-34.85 475.57,-95.9 633.11,-301.78 132.83,-280.61 -15.4,-523.23 -359.18,-375.17 -3.65,-129.15 -67.84,-223.26 -181.1,-279.43 -259.95,-128.91 -757.43,-137.35 -986.46,-145.94 -449.73,-20.42 -783.2,77.39 -959.59,236.82z"/>
  <path class="fil0" d="M1615 1002.31c0,238.24 -209.02,512.4 -70.76,800.57 -277.62,-112.1 -6.21,-686.59 -6.21,-839.05 0,-132.68 -28.47,-149.02 -38.49,-269.41 91.66,67.16 115.46,148.1 115.46,307.89z"/>
 </g>
</svg>
