<?xml version="1.0" encoding="UTF-8"?>
<!DOCTYPE svg PUBLIC "-//W3C//DTD SVG 1.1//EN" "http://www.w3.org/Graphics/SVG/1.1/DTD/svg11.dtd">
<!-- Creator: CorelDRAW -->
<svg xmlns="http://www.w3.org/2000/svg" xml:space="preserve" width="99mm" height="50mm" version="1.1" style="shape-rendering:geometricPrecision; text-rendering:geometricPrecision; image-rendering:optimizeQuality; fill-rule:evenodd; clip-rule:evenodd"
viewBox="0 0 9900 5000"
 xmlns:xlink="http://www.w3.org/1999/xlink"
 xmlns:xodm="http://www.corel.com/coreldraw/odm/2003">
 <defs>
  <style type="text/css">
   <![CDATA[
    .str0 {stroke:#702122;stroke-width:20;stroke-miterlimit:22.9256}
    .fil0 {fill:#702122}
    .fil1 {fill:#702122;fill-rule:nonzero}
   ]]>
  </style>
 </defs>
 <g id="Capa_x0020_1">
  <metadata id="CorelCorpID_0Corel-Layer"/>
  <path class="fil0" d="M5300.21 430.39c0,238.24 -209.03,512.4 -70.76,800.57 -277.62,-112.1 -6.22,-686.59 -6.22,-839.05 0,-132.68 -28.46,-149.02 -38.49,-269.4 91.66,67.15 115.47,148.09 115.47,307.88z"/>
  <path class="fil1 str0" d="M270.87 4023.67l0 321.57 307.29 0 0 41.7 -307.29 0 0 323.76 340.22 0 0 41.7 -389.6 0 0 -770.43 389.6 0 0 41.7 -340.22 0zm538.86 -83.42l0 812.15 -49.38 0 0 -812.15 49.38 0zm906.52 812.15l-197.55 -328.14 -4.38 0 -164.62 0 0 328.14 -49.39 0 0 -770.43 211.81 0c85.6,0 149.8,20.12 192.61,60.35 42.8,40.25 64.21,93.65 64.21,160.24 0,59.27 -16.66,108.11 -49.94,146.52 -33.29,38.4 -81.77,62.01 -145.42,70.78l201.95 332.54 -59.28 0zm-366.55 -369.85l164.62 0c68.04,0 118.89,-16.47 152.54,-49.39 33.67,-32.93 50.49,-76.45 50.49,-130.6 0,-117.8 -68.4,-176.7 -205.23,-176.7l-162.42 0 0 356.69zm591.54 -358.88c-11.71,0 -21.58,-3.84 -29.63,-11.53 -8.05,-7.68 -12.07,-18.1 -12.07,-31.27 0,-12.43 4.02,-22.69 12.07,-30.74 8.05,-8.03 17.92,-12.07 29.63,-12.07 11.7,0 21.58,4.04 29.63,12.07 8.05,8.05 12.07,18.31 12.07,30.74 0,13.17 -4.02,23.59 -12.07,31.27 -8.05,7.69 -17.93,11.53 -29.63,11.53zm24.15 132.8l0 595.93 -49.39 0 0 -595.93 49.39 0zm449.96 -12.08c70.97,0 128.77,21.77 173.4,65.3 44.64,43.54 66.95,108.11 66.95,193.71l0 349 -48.28 0 0 -345.71c0,-70.96 -17.93,-125.29 -53.79,-162.97 -35.85,-37.68 -84.5,-56.53 -145.97,-56.53 -64.38,0 -115.78,20.49 -154.18,61.47 -38.42,40.97 -57.62,101.7 -57.62,182.18l0 321.56 -49.39 0 0 -595.93 49.39 0 0 126.21c16.82,-44.64 44.81,-78.83 83.96,-102.62 39.14,-23.77 84.32,-35.67 135.53,-35.67zm384.13 309.5c0,-62.19 12.25,-116.34 36.76,-162.43 24.51,-46.1 58.54,-81.41 102.07,-105.92 43.54,-24.5 93.47,-36.76 149.8,-36.76 74.64,0 135.92,18.65 183.84,55.97 47.92,37.32 77.73,87.43 89.45,150.37l-51.59 0c-9.51,-51.23 -34.21,-91.47 -74.08,-120.73 -39.87,-29.27 -89.08,-43.91 -147.62,-43.91 -43.89,0 -83.76,9.7 -119.61,29.09 -35.86,19.39 -64.58,49.02 -86.16,88.9 -21.59,39.87 -32.37,88.35 -32.37,145.42 0,57.8 10.78,106.45 32.37,145.96 21.58,39.51 50.3,69.14 86.16,88.89 35.85,19.76 75.72,29.64 119.61,29.64 58.54,0 107.75,-14.64 147.62,-43.89 39.87,-29.27 64.57,-69.52 74.08,-120.74l51.59 0c-11.72,62.2 -41.71,112.32 -90,150.37 -48.29,38.04 -109.39,57.06 -183.29,57.06 -56.33,0 -106.26,-12.43 -149.8,-37.31 -43.53,-24.87 -77.56,-60.55 -102.07,-107 -24.51,-46.47 -36.76,-100.8 -36.76,-162.98zm974.57 307.29c-55.61,0 -105.72,-12.43 -150.35,-37.31 -44.63,-24.87 -79.58,-60.55 -104.82,-107 -25.24,-46.47 -37.86,-100.8 -37.86,-162.98 0,-61.47 12.81,-115.43 38.41,-161.89 25.61,-46.45 60.91,-81.95 105.91,-106.46 44.99,-24.5 95.3,-36.76 150.9,-36.76 55.61,0 105.73,12.26 150.36,36.76 44.63,24.51 79.57,59.82 104.82,105.92 25.23,46.09 37.86,100.24 37.86,162.43 0,62.18 -12.81,116.51 -38.42,162.98 -25.6,46.45 -60.91,82.13 -105.9,107 -45.01,24.88 -95.3,37.31 -150.91,37.31zm0 -43.89c43.16,0 83.59,-9.7 121.27,-29.09 37.69,-19.39 67.86,-48.84 90.55,-88.35 22.68,-39.51 34.02,-88.16 34.02,-145.96 0,-57.07 -11.34,-105.36 -34.02,-144.87 -22.69,-39.51 -52.68,-68.96 -90,-88.35 -37.32,-19.39 -77.56,-29.09 -120.72,-29.09 -43.17,0 -83.23,9.7 -120.18,29.09 -36.95,19.39 -66.77,48.84 -89.45,88.35 -22.67,39.51 -34.01,87.8 -34.01,144.87 0,57.8 11.14,106.45 33.47,145.96 22.32,39.51 51.95,68.96 88.89,88.35 36.96,19.39 77.01,29.09 120.18,29.09zm98.77 -747.4l-215.11 136.09 0 -40.61 215.11 -143.77 0 48.29zm615.69 174.5c70.97,0 128.77,21.77 173.4,65.3 44.64,43.54 66.95,108.11 66.95,193.71l0 349 -48.29 0 0 -345.71c0,-70.96 -17.92,-125.29 -53.78,-162.97 -35.85,-37.68 -84.5,-56.53 -145.97,-56.53 -64.38,0 -115.78,20.49 -154.18,61.47 -38.43,40.97 -57.62,101.7 -57.62,182.18l0 321.56 -49.39 0 0 -595.93 49.39 0 0 126.21c16.82,-44.64 44.81,-78.83 83.95,-102.62 39.15,-23.77 84.33,-35.67 135.54,-35.67zm693.62 309.5c0,-61.47 12.25,-115.24 36.76,-161.33 24.51,-46.09 58.54,-81.58 102.07,-106.46 43.54,-24.87 93.11,-37.32 148.71,-37.32 60.73,0 113.41,15.18 158.04,45.55 44.63,30.36 76.09,69.69 94.38,117.99l0 -372.07 49.39 0 0 812.15 -49.39 0 0 -158.04c-17.55,49.03 -48.28,89.08 -92.19,120.18 -43.9,31.1 -97.31,46.64 -160.23,46.64 -55.6,0 -105.17,-12.61 -148.71,-37.87 -43.53,-25.23 -77.56,-61.09 -102.07,-107.54 -24.51,-46.46 -36.76,-100.42 -36.76,-161.88zm539.96 0c0,-51.95 -10.78,-97.87 -32.36,-137.74 -21.6,-39.87 -51.05,-70.6 -88.36,-92.19 -37.32,-21.58 -79.02,-32.38 -125.11,-32.38 -48.3,0 -90.72,10.43 -127.32,31.28 -36.58,20.86 -65.11,51.03 -85.6,90.54 -20.48,39.51 -30.72,86.35 -30.72,140.49 0,54.13 10.24,100.97 30.72,140.47 20.49,39.51 49.2,69.87 86.16,91.09 36.94,21.22 79.2,31.84 126.76,31.84 46.09,0 87.98,-10.8 125.66,-32.38 37.68,-21.59 67.13,-52.32 88.35,-92.19 21.22,-39.87 31.82,-86.15 31.82,-138.83zm766.06 -39.51c0,26.34 -0.74,46.1 -2.2,59.27l-514.72 0c1.46,53.4 13.17,98.39 35.12,134.99 21.94,36.58 50.85,64.02 86.7,82.31 35.85,18.29 74.99,27.43 117.43,27.43 58.54,0 107.55,-14.44 147.06,-43.35 39.51,-28.91 64.39,-68.22 74.63,-117.98l51.58 0c-11.7,60.72 -41.7,109.93 -90,147.61 -48.28,37.68 -109.37,56.52 -183.27,56.52 -55.61,0 -105.36,-12.43 -149.26,-37.31 -43.9,-24.87 -78.28,-60.55 -103.16,-107 -24.87,-46.47 -37.32,-100.8 -37.32,-162.98 0,-62.19 12.25,-116.34 36.76,-162.43 24.51,-46.1 58.72,-81.41 102.63,-105.92 43.89,-24.5 94.01,-36.76 150.35,-36.76 57.07,0 106.64,12.26 148.7,36.76 42.08,24.51 74.1,57.08 96.04,97.69 21.95,40.61 32.93,84.32 32.93,131.15zm-49.39 18.65c2.19,-52.67 -7.13,-97.3 -27.99,-133.88 -20.85,-36.6 -49.2,-63.84 -85.06,-81.77 -35.85,-17.93 -74.62,-26.9 -116.33,-26.9 -41.7,0 -80.29,8.97 -115.78,26.9 -35.48,17.93 -64.39,45.17 -86.71,81.77 -22.31,36.58 -34.2,81.21 -35.66,133.88l467.53 0zm248.03 -492.78l0 812.15 -49.38 0 0 -812.15 49.38 0zm459.85 428.04c0,-76.11 15.91,-143.96 47.74,-203.59 31.82,-59.63 75.72,-106.28 131.7,-139.93 55.97,-33.66 118.71,-50.49 188.21,-50.49 87.81,0 161.71,20.49 221.7,61.46 60,40.97 103.89,98.41 131.69,172.31l-57.06 0c-21.95,-58.53 -58.35,-104.82 -109.2,-138.83 -50.86,-34.03 -113.23,-51.04 -187.13,-51.04 -59.26,0 -113.03,14.08 -161.33,42.25 -48.29,28.18 -86.33,68.78 -114.13,121.82 -27.81,53.06 -41.7,115.05 -41.7,186.04 0,70.23 13.89,131.5 41.7,183.82 27.8,52.31 65.84,92.74 114.13,121.27 48.3,28.53 102.07,42.81 161.33,42.81 73.9,0 136.27,-17.01 187.13,-51.04 50.85,-34.02 87.25,-80.3 109.2,-138.83l57.06 0c-27.8,73.9 -71.69,131.33 -131.69,172.3 -59.99,40.98 -133.89,61.47 -221.7,61.47 -69.5,0 -132.24,-16.64 -188.21,-49.94 -55.98,-33.29 -99.88,-79.75 -131.7,-139.38 -31.83,-59.64 -47.74,-127.13 -47.74,-202.48zm845.07 85.6c0,-61.47 12.25,-115.24 36.76,-161.33 24.51,-46.09 58.54,-81.58 102.07,-106.46 43.54,-24.87 93.11,-37.32 148.71,-37.32 62.92,0 116.33,15.36 160.23,46.1 43.91,30.73 74.64,69.88 92.19,117.44l0 -155.85 49.39 0 0 595.93 -49.39 0 0 -156.93c-17.55,48.28 -48.46,87.97 -92.73,119.07 -44.27,31.1 -97.49,46.64 -159.69,46.64 -55.6,0 -105.17,-12.61 -148.71,-37.87 -43.53,-25.23 -77.56,-61.09 -102.07,-107.54 -24.51,-46.46 -36.76,-100.42 -36.76,-161.88zm539.96 0c0,-51.95 -10.78,-97.87 -32.37,-137.74 -21.59,-39.87 -51.04,-70.6 -88.35,-92.19 -37.32,-21.58 -79.02,-32.38 -125.11,-32.38 -48.3,0 -90.72,10.43 -127.32,31.28 -36.58,20.86 -65.11,51.03 -85.6,90.54 -20.48,39.51 -30.72,86.35 -30.72,140.49 0,54.13 10.24,100.97 30.72,140.47 20.49,39.51 49.2,69.87 86.16,91.09 36.94,21.22 79.2,31.84 126.76,31.84 46.09,0 87.98,-10.8 125.66,-32.38 37.68,-21.59 67.13,-52.32 88.35,-92.19 21.22,-39.87 31.82,-86.15 31.82,-138.83zm456.56 -253.53l-154.74 0 0 552.04 -49.39 0 0 -552.04 -90 0 0 -43.89 90 0 0 -41.72c0,-62.18 15.73,-108.45 47.19,-138.82 31.47,-30.36 83.05,-45.55 154.74,-45.55l0 43.9c-57.06,0 -96.75,10.98 -119.07,32.93 -22.32,21.94 -33.47,57.8 -33.47,107.54l0 41.72 154.74 0 0 43.89zm662.89 214.02c0,26.34 -0.74,46.1 -2.19,59.27l-514.73 0c1.47,53.4 13.17,98.39 35.12,134.99 21.94,36.58 50.85,64.02 86.71,82.31 35.85,18.29 74.98,27.43 117.42,27.43 58.54,0 107.55,-14.44 147.06,-43.35 39.51,-28.91 64.4,-68.22 74.64,-117.98l51.58 0c-11.71,60.72 -41.7,109.93 -90,147.61 -48.29,37.68 -109.38,56.52 -183.28,56.52 -55.61,0 -105.36,-12.43 -149.26,-37.31 -43.89,-24.87 -78.28,-60.55 -103.16,-107 -24.87,-46.47 -37.31,-100.8 -37.31,-162.98 0,-62.19 12.25,-116.34 36.76,-162.43 24.51,-46.1 58.72,-81.41 102.62,-105.92 43.89,-24.5 94.02,-36.76 150.35,-36.76 57.08,0 106.64,12.26 148.71,36.76 42.07,24.51 74.09,57.08 96.04,97.69 21.94,40.61 32.92,84.32 32.92,131.15zm-49.39 18.65c2.19,-52.67 -7.13,-97.3 -27.98,-133.88 -20.86,-36.6 -49.21,-63.84 -85.06,-81.77 -35.86,-17.93 -74.63,-26.9 -116.34,-26.9 -41.7,0 -80.29,8.97 -115.78,26.9 -35.48,17.93 -64.38,45.17 -86.71,81.77 -22.3,36.58 -34.19,81.21 -35.66,133.88l467.53 0zm-139.38 -460.94l-215.11 136.08 0 -40.6 215.11 -143.78 0 48.3z"/>
  <path class="fil0" d="M4480.75 2970.56c18.62,37.54 12.92,42.23 41.57,84.25 88.26,66.69 467.81,96.59 692.2,34.47 117.24,-32.46 113.42,-22.2 156.62,-120.39 516.82,74.67 394.11,245.19 -62.49,310.01 -269.69,38.24 -861.36,31.74 -1093.59,-83.95 -222.2,-110.71 151.39,-209.56 265.69,-224.39zm1357 -641.82c79.23,-178.1 127.01,-404.47 266.77,-484.88 382.28,-220.01 248.98,535.09 -266.77,484.88zm-97.58 -562.84c-219.55,76.76 -572.9,94.58 -803.87,95.25 -177.37,0.49 -880.12,4.07 -970.06,-214.24 129.74,-175.76 604.46,-219.81 878.28,-212.88 346.96,6.44 866.07,53.77 992.32,141.93 47.42,33.11 135.82,108.69 -96.67,189.94zm-1849.53 -175.39c-90.48,169.95 5.52,491.27 79.11,648.67 44.26,94.7 267.81,388.54 323.09,435.14 -207.26,43.1 -444.1,95.59 -615.63,195.41 -81.44,47.37 -173.12,99.2 -209.29,188.67 -247.13,611.3 2052.75,846.96 2753.65,310.48 66.76,-51.1 153.23,-110.52 139.6,-247.12 -26.86,-269.43 -578.93,-377.46 -791.03,-439.52l173.72 -226.23c342.17,-34.85 475.57,-95.9 633.11,-301.78 132.83,-280.61 -15.4,-523.23 -359.18,-375.17 -3.65,-129.15 -67.84,-223.26 -181.1,-279.43 -259.95,-128.91 -757.43,-137.35 -986.46,-145.94 -449.73,-20.42 -783.2,77.39 -959.59,236.82z"/>
  <path class="fil0" d="M4883.42 899.29c0,238.24 -209.02,512.4 -70.76,800.57 -277.62,-112.1 -6.21,-686.59 -6.21,-839.05 0,-132.68 -28.47,-149.02 -38.49,-269.41 91.66,67.16 115.46,148.1 115.46,307.89z"/>
 </g>
</svg>
